<svg width="20" height="20" viewBox="0 0 20 20" fill="none" xmlns="http://www.w3.org/2000/svg">
<path d="M19.2148 16.7227L12.2422 9.75L19.2148 2.77734C19.7422 2.25 19.7422 1.3125 19.2148 0.785156C18.6875 0.257812 17.75 0.257812 17.2227 0.785156L10.25 7.75781L3.27734 0.785156C2.75 0.257812 1.8125 0.257812 1.28516 0.785156C0.757812 1.3125 0.757812 2.25 1.28516 2.77734L8.25781 9.75L1.28516 16.7227C0.757812 17.25 0.757812 18.1875 1.28516 18.7148C1.8125 19.2422 2.75 19.2422 3.27734 18.7148L10.25 11.7422L17.2227 18.7148C17.75 19.2422 18.6875 19.2422 19.2148 18.7148C19.7422 18.1875 19.7422 17.25 19.2148 16.7227Z" fill="white"/>
</svg>
