<svg width="28" height="27" viewBox="0 0 28 27" fill="none" xmlns="http://www.w3.org/2000/svg">
<path d="M12.7422 12.2422C12.0859 12.9531 12.0859 14.0469 12.7422 14.7578C13.3984 15.4688 14.5469 15.4141 15.2578 14.7578C15.9688 14.1016 15.9141 12.9531 15.2578 12.2422C14.5469 11.5859 13.4531 11.5859 12.7422 12.2422ZM14 0.375C6.72656 0.375 0.875 6.22656 0.875 13.5C0.875 20.7734 6.72656 26.625 14 26.625C21.2734 26.625 27.125 20.7734 27.125 13.5C27.125 6.22656 21.2734 0.375 14 0.375ZM20.8906 8.03125L17.2812 15.9062C17.1172 16.2344 16.7344 16.6172 16.4062 16.7812L8.53125 20.3906C7.60156 20.8281 6.67188 19.8984 7.10938 18.9688L10.7188 11.0938C10.8828 10.7656 11.2656 10.3828 11.5938 10.2188L19.4688 6.60938C20.3984 6.17188 21.3281 7.10156 20.8906 8.03125Z" fill="white"/>
</svg>
