<svg width="30" height="25" viewBox="0 0 30 25" fill="none" xmlns="http://www.w3.org/2000/svg">
<path d="M22.5859 8.45312C21.9844 8.01562 21.1641 8.07031 20.7266 8.61719C20.2344 9.21875 20.3438 10.0391 20.8906 10.4766C21.5469 10.9688 21.875 11.7344 21.875 12.5C21.875 13.2656 21.5469 14.0312 20.8906 14.5234C20.3438 14.9609 20.2344 15.7812 20.7266 16.3828C21 16.6562 21.3281 16.8203 21.7109 16.8203C22.0391 16.8203 22.3125 16.7656 22.5859 16.5469C23.7891 15.5625 24.5 14.0859 24.5 12.5C24.5 10.9141 23.7891 9.4375 22.5859 8.45312ZM25.8672 4.40625C25.3203 3.96875 24.5 4.02344 24.0078 4.57031C23.5703 5.17188 23.625 5.99219 24.2266 6.42969C26.0859 7.96094 27.125 10.1484 27.125 12.5C27.125 14.8516 26.0859 17.0391 24.2266 18.5703C23.625 19.0078 23.5703 19.8281 24.0078 20.4297C24.2812 20.7031 24.6641 20.8672 25.0469 20.8672C25.3203 20.8672 25.6484 20.8125 25.8672 20.5938C28.3281 18.5703 29.75 15.6172 29.75 12.5C29.75 9.38281 28.3281 6.42969 25.8672 4.40625ZM16.4609 0.414062C15.8594 0.140625 15.0938 0.25 14.6016 0.6875L7.21875 7.25H2.625C1.20312 7.25 0 8.45312 0 9.875V15.125C0 16.5469 1.20312 17.75 2.625 17.75H7.21875L14.6016 24.3125C14.9297 24.5859 15.3125 24.75 15.75 24.75C15.9688 24.75 16.2422 24.6953 16.4609 24.5859C17.1172 24.3125 17.5 23.7109 17.5 23V2C17.5 1.28906 17.1172 0.6875 16.4609 0.414062Z" fill="white"/>
</svg>
