<svg width="32" height="25" viewBox="0 0 32 25" fill="none" xmlns="http://www.w3.org/2000/svg">
<path d="M16.4609 0.414062C15.8594 0.140625 15.0938 0.25 14.6016 0.6875L7.21875 7.25H2.625C1.20312 7.25 0 8.45312 0 9.875V15.125C0 16.5469 1.20312 17.75 2.625 17.75H7.21875L14.6016 24.3125C14.9297 24.5859 15.3125 24.75 15.75 24.75C15.9688 24.75 16.2422 24.6953 16.4609 24.5859C17.1172 24.3125 17.5 23.7109 17.5 23V2C17.5 1.28906 17.1172 0.6875 16.4609 0.414062ZM28 12.5L31.2812 9.27344C31.6094 8.94531 31.6094 8.39844 31.2812 8.07031L30.6797 7.46875C30.3516 7.19531 29.8047 7.19531 29.4766 7.46875L26.25 10.75L23.0234 7.46875C22.6953 7.19531 22.1484 7.19531 21.8203 7.46875L21.2188 8.07031C20.9453 8.39844 20.9453 8.94531 21.2188 9.27344L24.5 12.5L21.2188 15.7266C20.8906 16.0547 20.8906 16.6016 21.2188 16.9297L21.8203 17.5312C22.1484 17.8594 22.6953 17.8594 23.0234 17.5312L26.25 14.25L29.4766 17.5312C29.8047 17.8594 30.3516 17.8594 30.6797 17.5312L31.2812 16.9297C31.6094 16.6016 31.6094 16.0547 31.2812 15.7266L28 12.5Z" fill="white"/>
</svg>
