<svg width="23" height="22" viewBox="0 0 23 22" fill="none" xmlns="http://www.w3.org/2000/svg">
<path d="M1.45312 1.34375C1.03125 1.53125 0.75 1.90625 0.75 2.375V8.375C0.75 8.98438 1.26562 9.5 1.875 9.5H7.875C8.34375 9.5 8.71875 9.21875 8.90625 8.79688C9.09375 8.375 9 7.90625 8.67188 7.57812L6.23438 5.14062C7.73438 3.64062 9.79688 2.75 12 2.75C16.5469 2.75 20.25 6.45312 20.25 11C20.25 15.5469 16.5469 19.25 12 19.25C10.0781 19.25 8.20312 18.5938 6.70312 17.3281C6.23438 16.9531 5.53125 17 5.15625 17.4688C4.73438 17.9844 4.78125 18.6875 5.29688 19.0625C7.17188 20.6562 9.5625 21.5 12 21.5C17.7656 21.5 22.5 16.7656 22.5 11C22.5 5.23438 17.7656 0.5 12 0.5C9.1875 0.5 6.5625 1.67188 4.64062 3.54688L2.67188 1.57812C2.34375 1.25 1.875 1.15625 1.45312 1.34375Z" fill="white"/>
</svg>
