<svg width="28" height="27" viewBox="0 0 28 27" fill="none" xmlns="http://www.w3.org/2000/svg">
<path d="M14 0.375C6.72656 0.375 0.875 6.22656 0.875 13.5C0.875 20.7734 6.72656 26.625 14 26.625C21.2734 26.625 27.125 20.7734 27.125 13.5C27.125 6.22656 21.2734 0.375 14 0.375ZM18.5391 17.7656C18.2656 18.1484 17.8828 18.3125 17.5 18.3125C17.2266 18.3125 16.9531 18.2031 16.7344 18.0391L13.2344 15.4141C12.9062 15.1953 12.6875 14.8125 12.6875 14.375V7.8125C12.6875 7.10156 13.2891 6.5 14 6.5C14.7109 6.5 15.3125 7.10156 15.3125 7.8125V13.7188L18.2656 15.9609C18.8672 16.3984 18.9766 17.2188 18.5391 17.7656Z" fill="white"/>
</svg>
