<svg width="28" height="27" viewBox="0 0 28 27" fill="none" xmlns="http://www.w3.org/2000/svg">
<path d="M14 0.375C6.72656 0.375 0.875 6.22656 0.875 13.5C0.875 20.7734 6.72656 26.625 14 26.625C21.2734 26.625 27.125 20.7734 27.125 13.5C27.125 6.22656 21.2734 0.375 14 0.375ZM20.3438 11.0938L13.3438 18.0938C13.0156 18.3672 12.6328 18.5312 12.25 18.5312C11.8672 18.5312 11.4844 18.3672 11.1562 18.0938L7.65625 14.5938C7.05469 13.9922 7.05469 13.0078 7.65625 12.4062C8.25781 11.8047 9.24219 11.8047 9.84375 12.4062L12.25 14.8125L18.1562 8.90625C18.7578 8.30469 19.7422 8.30469 20.3438 8.90625C20.9453 9.50781 20.9453 10.4922 20.3438 11.0938Z" fill="white"/>
</svg>
